# xmcd
# Track frame offsets:
# 150
# 6753
# 20155
# 40700
# 67577
# 79387
# 91577
# 105870
# 116558
# 130639
# 153653
# 173766
# 203255
# 212637
# 224106
# 238894
# 250801
# 264105
# 294280
# 315814
#
# Disc length: 4449 seconds
# Revision: 0
# Processed by: cddbd v1.5.1PL0 Copyright (c) Steve Scherf et al.
# Submitted via: VisiTrax 2.9.10.228 - For more info visit www.synapsa.com
#
DISCID=fa115f14
DTITLE="Various Artists" - Blues love songs
DYEAR=2004
DGENRE=Blues
TTITLE0=Vera Ward Hall - Another man done gone
TTITLE1=Dirty Dozen Brass Band Ft Nora Jones and Robert Rudlph - Ruller of my he
TTITLE1=art
TTITLE2=Ann Peebles - Tears in heaven
TTITLE3=Ella Fitzgerald - Love for sale
TTITLE4=Nina Simone - Little girl blue
TTITLE5=Ella May Morse - Buzz me
TTITLE6=Elmore James - Make a little love
TTITLE7=Bobby Bland - I'll take care of you
TTITLE8=Charles Brown - Lets just be friends
TTITLE9=Taj Mahal and Tourmani Diabate - Queen bee
TTITLE10=Debra Laws - Very special
TTITLE11=Nuyorican soul - I am the black gold of the sun
TTITLE12=Nancy Wilson - Call me
TTITLE13=Sammy Myers - My love is here to stay
TTITLE14=Taj Mahal - Mercedes benz
TTITLE15=Earl King - It must have be love
TTITLE16=Majic Sam - All your love
TTITLE17=Etta James - Ball and chain
TTITLE18=T-Bone Walker - Heartache
TTITLE19=India Arie - Brown Skin
EXTD=
EXTT0=
EXTT1=
EXTT2=
EXTT3=
EXTT4=
EXTT5=
EXTT6=
EXTT7=
EXTT8=
EXTT9=
EXTT10=
EXTT11=
EXTT12=
EXTT13=
EXTT14=
EXTT15=
EXTT16=
EXTT17=
EXTT18=
EXTT19=
PLAYORDER=
